<svg fill="none" height="100%" width="100%" viewBox="0 0 512 512" xmlns:xlink="http://www.w3.org/1999/xlink" xmlns="http://www.w3.org/2000/svg"><g transform="matrix(0.474,0,0,0.474,256,256)" visibility="hidden" id="i0"><g id="i1" transform="matrix(1,0,0,1,-8,-8)"><rect height="1096" width="1936" y="-548" x="-968" stroke-width="0" stroke="#ffffff" fill="#ffffff" /></g></g><g opacity="0" id="i2"><animate repeatCount="indefinite" attributeName="opacity" dur="3s" begin="0s" fill="freeze" values="0; 0; 1; 1" keyTimes="0; 0.199933; 0.2; 1" keySplines="0 0 1 1; 0 0 1 1; 0 0 1 1" calcMode="spline" /><g transform="translate(189.63,402.015) scale(0.104,0.104) translate(-256,-256)"><g id="i3" transform="matrix(1,0,0,1,237.42,347.614)"><path fill="#000000" d="M104.963,-76.262C81.924,-112.203,42.686,-133.664,-0.002,-133.664C-42.689,-133.664,-81.928,-112.203,-104.963,-76.262C-104.963,-76.262,-160.479,10.343,-160.479,10.343C-169.69,24.711,-173.939,41.312,-172.771,58.34C-171.603,75.371,-165.123,91.23,-154.033,104.215C-142.935,117.187,-128.271,126.054,-111.627,129.859C-94.982,133.664,-77.921,132.039,-62.288,125.168C-62.288,125.168,-61.24,124.703,-61.24,124.703C-21.904,107.758,23.045,107.914,62.279,125.168C72.4,129.617,83.122,131.867,93.942,131.867C99.825,131.867,105.743,131.199,111.607,129.863C128.251,126.062,142.916,117.195,154.018,104.218C165.111,91.246,171.596,75.383,172.768,58.347C173.94,41.312,169.69,24.715,160.479,10.34C160.479,10.34,104.963,-76.262,104.963,-76.262Z" /></g><g id="i4" transform="matrix(1,0,0,1,66.594,201.75)"><path fill="#000000" d="M25.301,69.488C41.817,63.144,54.363,49.837,60.629,32.012C66.594,15.051,66.106,-4.098,59.25,-21.91C52.391,-39.711,39.914,-54.241,24.117,-62.831C7.524,-71.851,-10.707,-73.32,-27.195,-66.964C-60.367,-54.21,-75.59,-13.218,-61.125,24.434C-49.57,54.403,-22.621,73.321,4.625,73.321C11.582,73.321,18.559,72.086,25.301,69.488Z" /></g><g id="i5" transform="matrix(1,0,0,1,199.617,117.693)"><path fill="#000000" d="M-0.004,85.693C41.465,85.693,75.203,47.256,75.203,0.01C75.203,-47.247,41.465,-85.693,-0.004,-85.693C-41.469,-85.693,-75.203,-47.247,-75.203,0.01C-75.203,47.256,-41.469,85.693,-0.004,85.693Z" /></g><g id="i6" transform="matrix(1,0,0,1,350.686,148.516)"><path fill="#000000" d="M-21.189,75.922C-21.189,75.922,-21.185,75.922,-21.185,75.922C-14.806,78.039,-8.299,79.051,-1.819,79.051C28.423,79.051,57.897,57.039,69.143,23.211C75.62,3.738,75.194,-16.851,67.944,-34.762C60.358,-53.512,46.299,-67.121,28.354,-73.086C10.405,-79.051,-9.005,-76.562,-26.306,-66.086C-42.834,-56.078,-55.498,-39.84,-61.966,-20.367C-75.619,20.711,-57.326,63.906,-21.189,75.922Z" /></g><g id="i7" transform="matrix(1,0,0,1,440.279,268.332)"><path fill="#000000" d="M47.596,-53.895C47.596,-53.895,47.583,-53.906,47.583,-53.906C18.986,-75.031,-23.783,-65.874,-47.763,-33.484C-71.72,-1.078,-67.975,42.489,-39.421,63.629C-29.007,71.344,-16.701,75.031,-4.107,75.031C17.842,75.031,40.678,63.829,55.944,43.227C79.897,10.821,76.155,-32.747,47.596,-53.895Z" /></g></g></g><g opacity="0" id="i8"><animate repeatCount="indefinite" attributeName="opacity" dur="3s" begin="0s" fill="freeze" values="0; 0; 1; 1" keyTimes="0; 0.401533; 0.401667; 1" keySplines="0 0 1 1; 0 0 1 1; 0 0 1 1" calcMode="spline" /><g transform="translate(191.526,216.178) scale(0.104,0.104) translate(-256,-256)"><g id="i3" transform="matrix(1,0,0,1,237.42,347.614)"><path fill="#000000" d="M104.963,-76.262C81.924,-112.203,42.686,-133.664,-0.002,-133.664C-42.689,-133.664,-81.928,-112.203,-104.963,-76.262C-104.963,-76.262,-160.479,10.343,-160.479,10.343C-169.69,24.711,-173.939,41.312,-172.771,58.34C-171.603,75.371,-165.123,91.23,-154.033,104.215C-142.935,117.187,-128.271,126.054,-111.627,129.859C-94.982,133.664,-77.921,132.039,-62.288,125.168C-62.288,125.168,-61.24,124.703,-61.24,124.703C-21.904,107.758,23.045,107.914,62.279,125.168C72.4,129.617,83.122,131.867,93.942,131.867C99.825,131.867,105.743,131.199,111.607,129.863C128.251,126.062,142.916,117.195,154.018,104.218C165.111,91.246,171.596,75.383,172.768,58.347C173.94,41.312,169.69,24.715,160.479,10.34C160.479,10.34,104.963,-76.262,104.963,-76.262Z" /></g><g id="i4" transform="matrix(1,0,0,1,66.594,201.75)"><path fill="#000000" d="M25.301,69.488C41.817,63.144,54.363,49.837,60.629,32.012C66.594,15.051,66.106,-4.098,59.25,-21.91C52.391,-39.711,39.914,-54.241,24.117,-62.831C7.524,-71.851,-10.707,-73.32,-27.195,-66.964C-60.367,-54.21,-75.59,-13.218,-61.125,24.434C-49.57,54.403,-22.621,73.321,4.625,73.321C11.582,73.321,18.559,72.086,25.301,69.488Z" /></g><g id="i5" transform="matrix(1,0,0,1,199.617,117.693)"><path fill="#000000" d="M-0.004,85.693C41.465,85.693,75.203,47.256,75.203,0.01C75.203,-47.247,41.465,-85.693,-0.004,-85.693C-41.469,-85.693,-75.203,-47.247,-75.203,0.01C-75.203,47.256,-41.469,85.693,-0.004,85.693Z" /></g><g id="i6" transform="matrix(1,0,0,1,350.686,148.516)"><path fill="#000000" d="M-21.189,75.922C-21.189,75.922,-21.185,75.922,-21.185,75.922C-14.806,78.039,-8.299,79.051,-1.819,79.051C28.423,79.051,57.897,57.039,69.143,23.211C75.62,3.738,75.194,-16.851,67.944,-34.762C60.358,-53.512,46.299,-67.121,28.354,-73.086C10.405,-79.051,-9.005,-76.562,-26.306,-66.086C-42.834,-56.078,-55.498,-39.84,-61.966,-20.367C-75.619,20.711,-57.326,63.906,-21.189,75.922Z" /></g><g id="i7" transform="matrix(1,0,0,1,440.279,268.332)"><path fill="#000000" d="M47.596,-53.895C47.596,-53.895,47.583,-53.906,47.583,-53.906C18.986,-75.031,-23.783,-65.874,-47.763,-33.484C-71.72,-1.078,-67.975,42.489,-39.421,63.629C-29.007,71.344,-16.701,75.031,-4.107,75.031C17.842,75.031,40.678,63.829,55.944,43.227C79.897,10.821,76.155,-32.747,47.596,-53.895Z" /></g></g></g><g opacity="0" id="i9"><animate repeatCount="indefinite" attributeName="opacity" dur="3s" begin="0s" fill="freeze" values="0; 0; 1; 1" keyTimes="0; 0.2999; 0.3; 1" keySplines="0 0 1 1; 0 0 1 1; 0 0 1 1" calcMode="spline" /><g transform="translate(271.17,305.304) scale(-0.104,0.104) translate(-256,-256)"><g id="i3" transform="matrix(1,0,0,1,237.42,347.614)"><path fill="#000000" d="M104.963,-76.262C81.924,-112.203,42.686,-133.664,-0.002,-133.664C-42.689,-133.664,-81.928,-112.203,-104.963,-76.262C-104.963,-76.262,-160.479,10.343,-160.479,10.343C-169.69,24.711,-173.939,41.312,-172.771,58.34C-171.603,75.371,-165.123,91.23,-154.033,104.215C-142.935,117.187,-128.271,126.054,-111.627,129.859C-94.982,133.664,-77.921,132.039,-62.288,125.168C-62.288,125.168,-61.24,124.703,-61.24,124.703C-21.904,107.758,23.045,107.914,62.279,125.168C72.4,129.617,83.122,131.867,93.942,131.867C99.825,131.867,105.743,131.199,111.607,129.863C128.251,126.062,142.916,117.195,154.018,104.218C165.111,91.246,171.596,75.383,172.768,58.347C173.94,41.312,169.69,24.715,160.479,10.34C160.479,10.34,104.963,-76.262,104.963,-76.262Z" /></g><g id="i4" transform="matrix(1,0,0,1,66.594,201.75)"><path fill="#000000" d="M25.301,69.488C41.817,63.144,54.363,49.837,60.629,32.012C66.594,15.051,66.106,-4.098,59.25,-21.91C52.391,-39.711,39.914,-54.241,24.117,-62.831C7.524,-71.851,-10.707,-73.32,-27.195,-66.964C-60.367,-54.21,-75.59,-13.218,-61.125,24.434C-49.57,54.403,-22.621,73.321,4.625,73.321C11.582,73.321,18.559,72.086,25.301,69.488Z" /></g><g id="i5" transform="matrix(1,0,0,1,199.617,117.693)"><path fill="#000000" d="M-0.004,85.693C41.465,85.693,75.203,47.256,75.203,0.01C75.203,-47.247,41.465,-85.693,-0.004,-85.693C-41.469,-85.693,-75.203,-47.247,-75.203,0.01C-75.203,47.256,-41.469,85.693,-0.004,85.693Z" /></g><g id="i6" transform="matrix(1,0,0,1,350.686,148.516)"><path fill="#000000" d="M-21.189,75.922C-21.189,75.922,-21.185,75.922,-21.185,75.922C-14.806,78.039,-8.299,79.051,-1.819,79.051C28.423,79.051,57.897,57.039,69.143,23.211C75.62,3.738,75.194,-16.851,67.944,-34.762C60.358,-53.512,46.299,-67.121,28.354,-73.086C10.405,-79.051,-9.005,-76.562,-26.306,-66.086C-42.834,-56.078,-55.498,-39.84,-61.966,-20.367C-75.619,20.711,-57.326,63.906,-21.189,75.922Z" /></g><g id="i7" transform="matrix(1,0,0,1,440.279,268.332)"><path fill="#000000" d="M47.596,-53.895C47.596,-53.895,47.583,-53.906,47.583,-53.906C18.986,-75.031,-23.783,-65.874,-47.763,-33.484C-71.72,-1.078,-67.975,42.489,-39.421,63.629C-29.007,71.344,-16.701,75.031,-4.107,75.031C17.842,75.031,40.678,63.829,55.944,43.227C79.897,10.821,76.155,-32.747,47.596,-53.895Z" /></g></g></g><g opacity="0" id="i10"><animate repeatCount="indefinite" attributeName="opacity" dur="3s" begin="0s" fill="freeze" values="0; 0; 1; 1" keyTimes="0; 0.501499; 0.501667; 1" keySplines="0 0 1 1; 0 0 1 1; 0 0 1 1" calcMode="spline" /><g transform="translate(278.756,113.778) scale(-0.104,0.104) translate(-256,-256)"><g id="i3" transform="matrix(1,0,0,1,237.42,347.614)"><path fill="#000000" d="M104.963,-76.262C81.924,-112.203,42.686,-133.664,-0.002,-133.664C-42.689,-133.664,-81.928,-112.203,-104.963,-76.262C-104.963,-76.262,-160.479,10.343,-160.479,10.343C-169.69,24.711,-173.939,41.312,-172.771,58.34C-171.603,75.371,-165.123,91.23,-154.033,104.215C-142.935,117.187,-128.271,126.054,-111.627,129.859C-94.982,133.664,-77.921,132.039,-62.288,125.168C-62.288,125.168,-61.24,124.703,-61.24,124.703C-21.904,107.758,23.045,107.914,62.279,125.168C72.4,129.617,83.122,131.867,93.942,131.867C99.825,131.867,105.743,131.199,111.607,129.863C128.251,126.062,142.916,117.195,154.018,104.218C165.111,91.246,171.596,75.383,172.768,58.347C173.94,41.312,169.69,24.715,160.479,10.34C160.479,10.34,104.963,-76.262,104.963,-76.262Z" /></g><g id="i4" transform="matrix(1,0,0,1,66.594,201.75)"><path fill="#000000" d="M25.301,69.488C41.817,63.144,54.363,49.837,60.629,32.012C66.594,15.051,66.106,-4.098,59.25,-21.91C52.391,-39.711,39.914,-54.241,24.117,-62.831C7.524,-71.851,-10.707,-73.32,-27.195,-66.964C-60.367,-54.21,-75.59,-13.218,-61.125,24.434C-49.57,54.403,-22.621,73.321,4.625,73.321C11.582,73.321,18.559,72.086,25.301,69.488Z" /></g><g id="i5" transform="matrix(1,0,0,1,199.617,117.693)"><path fill="#000000" d="M-0.004,85.693C41.465,85.693,75.203,47.256,75.203,0.01C75.203,-47.247,41.465,-85.693,-0.004,-85.693C-41.469,-85.693,-75.203,-47.247,-75.203,0.01C-75.203,47.256,-41.469,85.693,-0.004,85.693Z" /></g><g id="i6" transform="matrix(1,0,0,1,350.686,148.516)"><path fill="#000000" d="M-21.189,75.922C-21.189,75.922,-21.185,75.922,-21.185,75.922C-14.806,78.039,-8.299,79.051,-1.819,79.051C28.423,79.051,57.897,57.039,69.143,23.211C75.62,3.738,75.194,-16.851,67.944,-34.762C60.358,-53.512,46.299,-67.121,28.354,-73.086C10.405,-79.051,-9.005,-76.562,-26.306,-66.086C-42.834,-56.078,-55.498,-39.84,-61.966,-20.367C-75.619,20.711,-57.326,63.906,-21.189,75.922Z" /></g><g id="i7" transform="matrix(1,0,0,1,440.279,268.332)"><path fill="#000000" d="M47.596,-53.895C47.596,-53.895,47.583,-53.906,47.583,-53.906C18.986,-75.031,-23.783,-65.874,-47.763,-33.484C-71.72,-1.078,-67.975,42.489,-39.421,63.629C-29.007,71.344,-16.701,75.031,-4.107,75.031C17.842,75.031,40.678,63.829,55.944,43.227C79.897,10.821,76.155,-32.747,47.596,-53.895Z" /></g></g></g></svg>